<?xml version="1.0" encoding="utf-8"?>
<!-- Generator: Adobe Illustrator 17.0.0, SVG Export Plug-In . SVG Version: 6.00 Build 0)  -->
<!DOCTYPE svg PUBLIC "-//W3C//DTD SVG 1.1//EN" "http://www.w3.org/Graphics/SVG/1.1/DTD/svg11.dtd">
<svg version="1.1" id="Layer_1" xmlns="http://www.w3.org/2000/svg" xmlns:xlink="http://www.w3.org/1999/xlink" x="0px" y="0px"
	 width="1205px" height="400px" viewBox="0 0 1205 400" enable-background="new 0 0 1205 400" xml:space="preserve">
<g display="none">
	<g>
		
			<image display="inline" overflow="visible" opacity="0.42" width="276" height="321" xlink:href="8EAC12679AED682D.png"  transform="matrix(1 0 0 1 51.4467 -312.5533)">
		</image>
	</g>
</g>
<rect x="418" y="-282" fill="none" width="724" height="221"/>
<text transform="matrix(1 0 0 1 494.0703 -71.3311)" display="none" fill="#FFFFFF" font-family="'GothicA1-Medium'" font-size="273">Trub</text>
<g>
	<g>
		<path d="M585.698,116.289v31.953h26.234v19.249h-26.234v79.755c0,5.293,2.416,10.984,5.112,13.115
			c6.703,5.297,15.842,2.759,21.128,2.759l-0.013,19.52c-25.575,1.478-33.462-3.049-38.584-9.147s-7.101-14.757-7.101-25.977
			v-80.024h-25.532v-19.249h25.532v-31.953H585.698z"/>
		<path d="M810.558,265.998c-8.659,10.326-22.618,15.488-39.373,15.488c-13.871,0-23-3.636-30.255-11.808
			c-7.257-8.171-10.922-19.894-11.001-35.912v-85.381h19.457v84.294c0,20.002,8.016,30.002,24.052,30.002
			c16.996,0,31.508-7.815,37.12-20.662v-93.634h19.457v132.033h-19.457V265.998z"/>
		<path d="M955.605,215.818c0,20.06-4.265,36.175-12.793,48.347c-8.53,12.174-19.977,18.258-34.342,18.258
			c-15.338,0-26.563-5.863-34.942-17.591v15.53H854.07V116.507h19.457v46.42c8.378-11.241,19.977-16.625,34.718-16.625
			c14.738,0,26.317,6.026,34.735,18.077c8.417,12.053,12.625,28.552,12.625,49.499V215.818z M936.375,213.175
			c0-15.287-0.962-27.094-6.423-35.426c-5.462-8.329-13.318-12.496-23.567-12.496c-13.692,0-26.872,7.208-32.857,20.957v56.433
			c6.359,13.75,19.614,20.638,33.081,20.638c9.95,0,17.694-4.165,23.232-12.496C935.376,242.455,936.375,229.918,936.375,213.175z"
			/>
		<path d="M1058.8,281.07c0.349,0,0-14.285,0-14.285c-10.354,10.897-20.828,16.39-35.196,16.39
			c-12.843,0-23.378-3.677-31.604-11.038c-8.229-7.357-12.341-16.686-12.341-27.989c0-13.739,5.156-24.411,15.471-32.014
			c10.313-7.602,24.822-11.403,43.525-11.403l20.146,0.144v-10.367c0-7.886-2.329-14.166-6.983-18.842
			c-4.656-4.675-10.661-6.414-19.73-6.414c-7.946,0-14.004,1.87-19.38,5.934c-5.378,4.067-8.067,8.913-8.067,14.686l-19.624-0.222
			c0-6.586,2.306-12.946,6.922-19.087c4.615-6.138,10.876-10.924,18.783-14.503c7.904-3.577,12.516-4.987,21.988-4.987
			c15.009,0,25.323,3.423,33.832,11.024c8.507,7.604,11.395,18.071,11.717,31.404v60.736v30.832H1058.8z M1024.04,263.898
			c6.983,0,13.605-1.83,19.865-5.488c6.261-3.659,12.084-8.416,14.895-14.269v-27.075h-18.747c-27.292,0-40.936,8.091-40.936,24.269
			c0,7.074,2.328,12.604,6.983,16.587C1010.754,261.907,1016.734,263.898,1024.04,263.898z"/>
		<path d="M705.867,167.842c-3.415-0.568-14.555-1.586-18.538-1.586c-14.799,0-26.602,8.707-31.885,21.309v92.853h-19.457V148.46
			h19.457v15.309c7.397-11.788,19.412-17.748,32.991-17.748c4.391,0,15.163,1.301,17.44,2.439L705.867,167.842z"/>
	</g>
	<g id="carousel">
		<path d="M198.812,283.443h-65.812c-3.456,0-6.258-2.802-6.258-6.258v-154.37c0-3.456,2.802-6.258,6.258-6.258h65.812V283.443z"/>
		<path d="M461.182,283.443h-65.875V116.557h65.875c3.421,0,6.194,2.773,6.194,6.194v154.497
			C467.377,280.67,464.604,283.443,461.182,283.443z"/>
		<g>
			
				<image overflow="visible" opacity="0.18" width="251" height="292" xlink:href="8EAC12679AED682F.png"  transform="matrix(1 0 0 1 172.0793 66.0793)">
			</image>
			<g>
				<path d="M378.245,308.461h-162.37c-3.763,0-6.814-3.051-6.814-6.814V98.353c0-3.763,3.051-6.814,6.814-6.814h162.37
					c3.763,0,6.814,3.051,6.814,6.814v203.293C385.059,305.41,382.008,308.461,378.245,308.461z"/>
			</g>
		</g>
	</g>
</g>
</svg>
